HIERARCHY
ROOT Joint0
{
  OFFSET 0.0000 0.0000 1.0000
  CHANNELS 6 Xposition Yposition Zposition Zrotation Xrotation Yrotation
  JOINT Joint1
  {
    OFFSET 0.0811 -0.0899 -0.0114
    CHANNELS 3 Zrotation Xrotation Yrotation
    JOINT Joint4
    {
      OFFSET 0.0297 -0.3677 -0.0039
      CHANNELS 3 Zrotation Xrotation Yrotation
      JOINT Joint7
      {
        OFFSET -0.0120 -0.3841 -0.0490
        CHANNELS 3 Zrotation Xrotation Yrotation
        JOINT Joint10
        {
          OFFSET 0.0247 -0.0555 0.1226
          CHANNELS 3 Zrotation Xrotation Yrotation
          End Site
          {
            OFFSET 0.0247 -0.0555 0.1226
          }
        }
      }
    }
  }
  JOINT Joint2
  {
    OFFSET -0.0773 -0.0878 -0.0084
    CHANNELS 3 Zrotation Xrotation Yrotation
    JOINT Joint5
    {
      OFFSET -0.0344 -0.3716 -0.0062
      CHANNELS 3 Zrotation Xrotation Yrotation
      JOINT Joint8
      {
        OFFSET 0.0139 -0.3835 -0.0484
        CHANNELS 3 Zrotation Xrotation Yrotation
        JOINT Joint11
        {
          OFFSET -0.0293 -0.0469 0.1263
          CHANNELS 3 Zrotation Xrotation Yrotation
          End Site
          {
            OFFSET -0.0293 -0.0469 0.1263
          }
        }
      }
    }
  }
  JOINT Joint3
  {
    OFFSET -0.0027 0.1037 -0.0232
    CHANNELS 3 Zrotation Xrotation Yrotation
    JOINT Joint6
    {
      OFFSET 0.0030 0.1296 -0.0027
      CHANNELS 3 Zrotation Xrotation Yrotation
      JOINT Joint9
      {
        OFFSET 0.0015 0.0533 0.0332
        CHANNELS 3 Zrotation Xrotation Yrotation
        JOINT Joint12
        {
          OFFSET -0.0004 0.2283 -0.0600
          CHANNELS 3 Zrotation Xrotation Yrotation
          JOINT Joint15
          {
            OFFSET 0.0048 0.0641 0.0558
            CHANNELS 3 Zrotation Xrotation Yrotation
            End Site
            {
              OFFSET 0.0048 0.0641 0.0558
            }
          }
        }
        JOINT Joint13
        {
          OFFSET 0.0787 0.1275 -0.0430
          CHANNELS 3 Zrotation Xrotation Yrotation
          JOINT Joint16
          {
            OFFSET 0.0914 0.0355 -0.0086
            CHANNELS 3 Zrotation Xrotation Yrotation
            JOINT Joint18
            {
              OFFSET 0.2512 -0.0141 -0.0294
              CHANNELS 3 Zrotation Xrotation Yrotation
              JOINT Joint20
              {
                OFFSET 0.2431 0.0092 0.0027
                CHANNELS 3 Zrotation Xrotation Yrotation
                JOINT Joint22
                {
                  OFFSET 0.1053 -0.0108 0.0234
                  CHANNELS 3 Zrotation Xrotation Yrotation
                  JOINT Joint23
                  {
                    OFFSET 0.0332 0.0042 0.0030
                    CHANNELS 3 Zrotation Xrotation Yrotation
                    JOINT Joint24
                    {
                      OFFSET 0.0234 -0.0009 0.0005
                      CHANNELS 3 Zrotation Xrotation Yrotation
                      End Site
                      {
                        OFFSET 0.0234 -0.0009 0.0005
                      }
                    }
                  }
                }
                JOINT Joint25
                {
                  OFFSET 0.1126 -0.0078 -0.0002
                  CHANNELS 3 Zrotation Xrotation Yrotation
                  JOINT Joint26
                  {
                    OFFSET 0.0317 0.0021 -0.0047
                    CHANNELS 3 Zrotation Xrotation Yrotation
                    JOINT Joint27
                    {
                      OFFSET 0.0246 -0.0008 -0.0039
                      CHANNELS 3 Zrotation Xrotation Yrotation
                      End Site
                      {
                        OFFSET 0.0246 -0.0008 -0.0039
                      }
                    }
                  }
                }
                JOINT Joint28
                {
                  OFFSET 0.0860 -0.0168 -0.0403
                  CHANNELS 3 Zrotation Xrotation Yrotation
                  JOINT Joint29
                  {
                    OFFSET 0.0158 -0.0006 -0.0114
                    CHANNELS 3 Zrotation Xrotation Yrotation
                    JOINT Joint30
                    {
                      OFFSET 0.0161 -0.0011 -0.0109
                      CHANNELS 3 Zrotation Xrotation Yrotation
                      End Site
                      {
                        OFFSET 0.0161 -0.0011 -0.0109
                      }
                    }
                  }
                }
                JOINT Joint31
                {
                  OFFSET 0.0999 -0.0111 -0.0238
                  CHANNELS 3 Zrotation Xrotation Yrotation
                  JOINT Joint32
                  {
                    OFFSET 0.0286 0.0023 -0.0053
                    CHANNELS 3 Zrotation Xrotation Yrotation
                    JOINT Joint33
                    {
                      OFFSET 0.0234 -0.0009 -0.0074
                      CHANNELS 3 Zrotation Xrotation Yrotation
                      End Site
                      {
                        OFFSET 0.0234 -0.0009 -0.0074
                      }
                    }
                  }
                }
                JOINT Joint34
                {
                  OFFSET 0.0426 -0.0219 0.0277
                  CHANNELS 3 Zrotation Xrotation Yrotation
                  JOINT Joint35
                  {
                    OFFSET 0.0185 0.0008 0.0246
                    CHANNELS 3 Zrotation Xrotation Yrotation
                    JOINT Joint36
                    {
                      OFFSET 0.0221 -0.0048 0.0152
                      CHANNELS 3 Zrotation Xrotation Yrotation
                      End Site
                      {
                        OFFSET 0.0221 -0.0048 0.0152
                      }
                    }
                  }
                }
              }
            }
          }
        }
        JOINT Joint14
        {
          OFFSET -0.0815 0.1251 -0.0492
          CHANNELS 3 Zrotation Xrotation Yrotation
          JOINT Joint17
          {
            OFFSET -0.0975 0.0385 -0.0099
            CHANNELS 3 Zrotation Xrotation Yrotation
            JOINT Joint19
            {
              OFFSET -0.2546 -0.0159 -0.0229
              CHANNELS 3 Zrotation Xrotation Yrotation
              JOINT Joint21
              {
                OFFSET -0.2519 0.0079 0.0007
                CHANNELS 3 Zrotation Xrotation Yrotation
                JOINT Joint37
                {
                  OFFSET -0.1043 -0.0103 0.0246
                  CHANNELS 3 Zrotation Xrotation Yrotation
                  JOINT Joint38
                  {
                    OFFSET -0.0341 0.0034 0.0025
                    CHANNELS 3 Zrotation Xrotation Yrotation
                    JOINT Joint39
                    {
                      OFFSET -0.0236 -0.0015 -0.0003
                      CHANNELS 3 Zrotation Xrotation Yrotation
                      End Site
                      {
                        OFFSET -0.0236 -0.0015 -0.0003
                      }
                    }
                  }
                }
                JOINT Joint40
                {
                  OFFSET -0.1123 -0.0074 -0.0003
                  CHANNELS 3 Zrotation Xrotation Yrotation
                  JOINT Joint41
                  {
                    OFFSET -0.0322 0.0016 -0.0048
                    CHANNELS 3 Zrotation Xrotation Yrotation
                    JOINT Joint42
                    {
                      OFFSET -0.0245 -0.0012 -0.0045
                      CHANNELS 3 Zrotation Xrotation Yrotation
                      End Site
                      {
                        OFFSET -0.0245 -0.0012 -0.0045
                      }
                    }
                  }
                }
                JOINT Joint43
                {
                  OFFSET -0.0863 -0.0161 -0.0419
                  CHANNELS 3 Zrotation Xrotation Yrotation
                  JOINT Joint44
                  {
                    OFFSET -0.0162 -0.0001 -0.0120
                    CHANNELS 3 Zrotation Xrotation Yrotation
                    JOINT Joint45
                    {
                      OFFSET -0.0165 -0.0007 -0.0110
                      CHANNELS 3 Zrotation Xrotation Yrotation
                      End Site
                      {
                        OFFSET -0.0165 -0.0007 -0.0110
                      }
                    }
                  }
                }
                JOINT Joint46
                {
                  OFFSET -0.0999 -0.0107 -0.0248
                  CHANNELS 3 Zrotation Xrotation Yrotation
                  JOINT Joint47
                  {
                    OFFSET -0.0290 0.0016 -0.0050
                    CHANNELS 3 Zrotation Xrotation Yrotation
                    JOINT Joint48
                    {
                      OFFSET -0.0236 -0.0012 -0.0076
                      CHANNELS 3 Zrotation Xrotation Yrotation
                      End Site
                      {
                        OFFSET -0.0236 -0.0012 -0.0076
                      }
                    }
                  }
                }
                JOINT Joint49
                {
                  OFFSET -0.0397 -0.0214 0.0306
                  CHANNELS 3 Zrotation Xrotation Yrotation
                  JOINT Joint50
                  {
                    OFFSET -0.0191 0.0007 0.0247
                    CHANNELS 3 Zrotation Xrotation Yrotation
                    JOINT Joint51
                    {
                      OFFSET -0.0231 -0.0056 0.0141
                      CHANNELS 3 Zrotation Xrotation Yrotation
                      End Site
                      {
                        OFFSET -0.0231 -0.0056 0.0141
                      }
                    }
                  }
                }
              }
            }
          }
        }
      }
    }
  }
}
MOTION
Frames: 6
Frame Time: 0.0333
0.0000 0.0000 0.0000 -73.0571 55.6606 37.0590 31.2859 -47.1274 -6.8946 -87.6836 74.7800 70.7149 -4.0926 -28.7337 -29.5449 -0.3004 0.0263 0.3141 -55.8742 -13.7158 -32.3435 10.3721 78.9351 -15.1380 13.6159 -19.1634 59.6412 0.3325 -0.4922 -0.2769 17.8889 66.9138 -13.6774 28.5519 -16.9841 9.3360 -14.0830 -5.3892 34.1090 14.5464 -40.3886 50.6399 -4.3881 -25.6052 -18.7227 -32.0047 -23.6823 9.4263 -89.7764 -31.3771 -47.3506 -12.7459 -12.7349 19.8339 -2.8922 -10.7436 25.3864 -23.4975 5.3877 3.3878 -43.0919 7.2831 -1.0712 -11.5787 -4.7372 -5.6858 -30.2974 -7.0315 0.9515 -40.7741 -8.5406 0.1542 -19.7716 -0.4185 -5.1070 -40.2133 -20.7563 -19.1302 -30.0761 -10.9657 -6.7417 -5.4239 -21.2379 -4.4699 -36.6254 -5.8440 -6.7987 -36.9421 -15.1055 -8.4954 -22.8970 -8.2815 -9.4665 -16.1946 46.4796 23.7981 3.7125 -28.3851 2.0873 -17.9856 30.5808 8.1989 18.9347 6.8587 40.9596 61.3439 -3.5820 2.4655 -13.2744 21.2962 10.5237 0.7134 -19.9815 -10.6209 24.6968 5.4799 -4.2707 43.3316 7.2960 0.8313 11.0226 -5.4022 5.8374 30.0423 -6.9589 -0.8647 40.3941 -8.3527 -0.1791 19.9575 -0.1566 5.6572 39.8091 -20.6020 19.5972 29.9218 -10.8373 6.6813 5.6561 -21.2263 4.3673 36.3712 -6.3082 7.3755 38.4978 -14.9437 8.4665 21.8093 -8.6459 9.0565 15.8152 46.9566 -23.2577 -4.2069 -28.5213 -2.0638 18.4552 29.6450 -7.8010
0.0000 0.0000 0.0000 -73.0086 55.7353 37.1068 31.2784 -47.2490 -6.7792 -88.2053 74.4707 71.4253 -4.2199 -28.6880 -29.6582 -0.2572 0.0205 0.2192 -56.7067 -13.2992 -32.7138 10.9544 78.8565 -15.8880 13.5589 -19.2608 59.4831 0.3494 -0.4623 -0.3292 18.4690 66.9681 -14.2938 28.4442 -16.7376 9.4116 -14.2419 -5.4080 34.3537 14.5341 -40.6184 50.6868 -4.5102 -25.7244 -18.8069 -32.2189 -23.5771 9.2152 -89.4926 -31.6375 -47.2599 -12.9034 -13.1690 19.8036 -3.0365 -10.8468 25.3458 -23.5908 5.3165 3.3897 -43.0412 7.2764 -1.1132 -11.6313 -4.7426 -5.6926 -30.2882 -7.0947 1.0368 -40.7812 -8.5800 0.2128 -19.7007 -0.4119 -5.0236 -40.2407 -20.7223 -19.1684 -30.0460 -10.9483 -6.8282 -5.4362 -21.2186 -4.6041 -36.5701 -5.8690 -6.7495 -37.0229 -15.0753 -8.6631 -22.7483 -8.2182 -9.4792 -16.1930 46.5910 23.8567 3.7756 -28.2870 2.0586 -18.2193 30.5420 8.3221 18.8395 6.7001 41.0174 61.0696 -3.5387 2.4512 -13.2554 21.0820 10.7936 0.7439 -20.0028 -10.5037 24.6969 5.4139 -4.3497 43.4067 7.2331 0.7747 10.9222 -5.3771 5.7366 29.9622 -6.9214 -0.9709 40.2929 -8.3988 -0.2344 19.8976 -0.2387 5.6460 39.8180 -20.6449 19.6325 29.8747 -10.8483 6.6379 5.5713 -21.1706 4.2618 36.2819 -6.3102 7.3632 38.3719 -14.9139 8.3745 21.7041 -8.7030 9.0599 15.7300 46.9907 -23.2270 -4.1187 -28.4748 -1.9133 18.5028 29.6219 -7.9621
0.0000 0.0000 0.0000 -72.6170 55.7624 36.9317 31.1694 -47.3361 -6.9026 -89.3329 74.2348 72.9344 -4.3081 -28.9152 -30.0548 -0.3026 -0.0347 0.1818 -57.7295 -12.8828 -32.8077 11.0414 78.9999 -16.1106 13.5720 -19.2892 59.7238 0.3508 -0.4461 -0.3205 19.2906 67.1645 -15.1531 28.4948 -16.5996 9.5358 -14.4419 -5.6832 34.8420 14.6148 -40.9315 51.4859 -4.7543 -26.0713 -19.2565 -32.4358 -23.7342 9.1100 -89.4095 -31.7453 -47.4058 -12.9943 -13.4560 19.9042 -3.1593 -10.8671 25.3754 -23.5864 5.3393 3.4180 -43.0530 7.2587 -1.1352 -11.6548 -4.7638 -5.6734 -30.2650 -7.1070 1.0957 -40.7698 -8.6286 0.1727 -19.6530 -0.3546 -5.0008 -40.2519 -20.7193 -19.1907 -30.1123 -10.9244 -6.8886 -5.4621 -21.1040 -4.7029 -36.5355 -5.8692 -6.6731 -37.1305 -15.0449 -8.7539 -22.6878 -8.1971 -9.4956 -16.1611 46.5376 23.8915 3.7984 -28.1882 1.9692 -18.2566 30.5092 8.3339 18.6228 6.6428 41.3099 60.9128 -3.4645 2.5554 -13.3289 21.3697 10.9446 0.9045 -20.2202 -10.4899 24.6303 5.4090 -4.3848 43.4957 7.2183 0.8225 10.8753 -5.3405 5.6840 30.0539 -6.8673 -1.0567 40.2846 -8.4326 -0.2388 19.8881 -0.2270 5.6537 39.7962 -20.6826 19.6445 29.8556 -10.8896 6.5976 5.5772 -21.1485 4.3206 36.2753 -6.2324 7.4099 38.3478 -14.9070 8.3787 21.6734 -8.7171 9.0674 15.7086 46.9141 -23.1951 -4.0128 -28.4689 -1.8458 18.5252 29.5772 -8.0541
0.0000 0.0000 0.0000 -72.0953 55.7373 36.6325 31.0659 -47.4460 -7.1310 -90.4306 74.0505 74.5662 -4.3626 -29.2354 -30.5511 -0.3903 -0.1093 0.1869 -58.9254 -12.4317 -32.8826 10.5424 79.3809 -15.6430 13.5979 -19.3144 60.1349 0.3211 -0.4710 -0.3060 19.8638 67.3682 -15.6006 28.6992 -16.5120 9.6684 -14.5909 -6.0400 35.3329 14.6616 -41.2673 52.3538 -5.0197 -26.5291 -19.8557 -32.6310 -24.0024 9.0751 -89.5653 -31.7706 -47.6914 -12.9764 -13.5843 20.0266 -3.2210 -10.8208 25.4414 -23.5591 5.4132 3.4553 -43.0877 7.2367 -1.1161 -11.6387 -4.8064 -5.6235 -30.2373 -7.0728 1.1382 -40.7483 -8.6644 0.1132 -19.6835 -0.3027 -4.9771 -40.2382 -20.7151 -19.1799 -30.1825 -10.9356 -6.8892 -5.4909 -20.9528 -4.6979 -36.5290 -5.8960 -6.6221 -37.2023 -15.0143 -8.7964 -22.7324 -8.2102 -9.5279 -16.1568 46.4122 23.9164 3.8058 -28.1291 1.9214 -18.1297 30.5335 8.2810 18.5061 6.7254 41.5950 60.8329 -3.3846 2.7214 -13.4535 21.9331 10.9091 1.0731 -20.5211 -10.5637 24.5365 5.4523 -4.3686 43.5926 7.2037 0.9037 10.8856 -5.3348 5.6735 30.2150 -6.8756 -1.0665 40.2159 -8.4227 -0.2789 19.9169 -0.1755 5.6687 39.7945 -20.6695 19.6720 29.8842 -10.8669 6.6307 5.5873 -21.1702 4.4337 36.3485 -6.1682 7.4318 38.3883 -14.9207 8.4584 21.6795 -8.6956 9.0920 15.7514 46.8753 -23.2571 -3.9673 -28.4403 -1.8540 18.5343 29.5414 -8.0351
0.0000 0.0000 0.0000 -71.7485 55.7120 36.3370 30.9680 -47.5721 -7.2937 -91.2912 73.8566 75.9582 -4.3991 -29.4683 -30.8424 -0.4292 -0.1245 0.1880 -60.1602 -11.9286 -33.0483 9.6192 79.7420 -14.6447 13.5684 -19.4189 60.3441 0.2799 -0.4798 -0.2991 20.2499 67.4984 -15.7024 28.9392 -16.3749 9.8050 -14.6916 -6.3270 35.7083 14.6452 -41.5769 52.8215 -5.1830 -26.9558 -20.2767 -32.7528 -24.1330 9.0833 -89.7439 -31.7873 -47.8853 -12.9384 -13.7152 20.0907 -3.2519 -10.7519 25.3880 -23.5526 5.4775 3.4285 -43.1134 7.2600 -1.1073 -11.6350 -4.8222 -5.6016 -30.2540 -7.0331 1.1571 -40.6908 -8.6977 0.0800 -19.7000 -0.3402 -4.9921 -40.2406 -20.7239 -19.1394 -30.2007 -10.9605 -6.8840 -5.4588 -20.8720 -4.6592 -36.5177 -5.9455 -6.5992 -37.2283 -14.9785 -8.8036 -22.8750 -8.2398 -9.5725 -16.2494 46.3554 23.9846 3.8069 -28.2073 1.9465 -18.0155 30.6387 8.2685 18.4609 6.7287 41.7361 60.7699 -3.3353 2.9097 -13.5584 22.3751 10.9075 1.1932 -20.7408 -10.6412 24.4651 5.4816 -4.3641 43.5902 7.1819 0.9415 10.8934 -5.3522 5.6763 30.2800 -6.9474 -1.0204 40.1815 -8.4396 -0.3125 19.9215 -0.1541 5.6772 39.8202 -20.6483 19.7583 29.8790 -10.8257 6.6301 5.5497 -21.1629 4.4881 36.3967 -6.2208 7.3987 38.4169 -14.9565 8.5209 21.6886 -8.6714 9.0951 15.8372 46.8333 -23.4119 -3.9785 -28.3974 -1.8884 18.5090 29.6187 -8.0103
0.0000 0.0000 0.0000 -71.6507 55.7395 36.2234 30.8075 -47.6489 -7.3951 -91.8895 73.5778 77.0344 -4.4158 -29.5722 -30.9336 -0.4400 -0.1021 0.2016 -61.1015 -11.4347 -33.2741 8.7699 79.9736 -13.6574 13.4806 -19.5768 60.2515 0.2597 -0.4796 -0.3319 20.6197 67.5245 -15.7382 29.1765 -16.1374 9.9547 -14.7719 -6.4832 35.9672 14.6086 -41.9097 52.8761 -5.2365 -27.2883 -20.4875 -32.7860 -24.0855 9.1161 -89.8515 -31.8317 -47.8650 -12.9569 -13.9730 20.0397 -3.2607 -10.6391 25.1983 -23.5453 5.4935 3.3932 -43.1225 7.2985 -1.1216 -11.6388 -4.8229 -5.6051 -30.2811 -7.0049 1.1665 -40.6413 -8.7287 0.0547 -19.6546 -0.3311 -5.0305 -40.2548 -20.7142 -19.1039 -30.1570 -10.9681 -6.8625 -5.4499 -20.8746 -4.6265 -36.5251 -5.9848 -6.6079 -37.2189 -14.9820 -8.8228 -22.9657 -8.2618 -9.5669 -16.3537 46.3776 24.0866 3.7988 -28.2553 1.9960 -17.9997 30.7627 8.2693 18.4847 6.6008 41.7021 60.7527 -3.3321 3.0958 -13.6351 22.5707 11.0421 1.2201 -20.7896 -10.6791 24.4516 5.4478 -4.3694 43.5570 7.1552 0.9262 10.8503 -5.3757 5.6603 30.2502 -7.0173 -0.9888 40.2024 -8.4829 -0.3075 19.9273 -0.1543 5.6785 39.8374 -20.6561 19.8217 29.8676 -10.7751 6.6260 5.5081 -21.1450 4.4603 36.3811 -6.3716 7.3277 38.3950 -14.9838 8.5133 21.6938 -8.6580 9.0585 15.8638 46.8204 -23.4948 -4.0215 -28.3650 -1.9233 18.4604 29.7107 -7.9874
